<mxfile host="app.diagrams.net" modified="2024-02-11T17:46:51.943Z" agent="Mozilla/5.0 (Windows NT 10.0; Win64; x64; rv:122.0) Gecko/20100101 Firefox/122.0" etag="VIncdMHiwAjhDaR_Y_51" version="22.1.21" type="github">
  <diagram name="Page-1" id="KpoSNjIPvQdtT7elPiDa">
    <mxGraphModel dx="1372" dy="794" grid="0" gridSize="10" guides="1" tooltips="1" connect="1" arrows="1" fold="1" page="0" pageScale="1" pageWidth="850" pageHeight="1100" math="0" shadow="0">
      <root>
        <mxCell id="0" />
        <mxCell id="1" parent="0" />
        <mxCell id="dCB3EUK5uvfwZvrrkoyE-1" value="REST" style="text;html=1;align=center;verticalAlign=middle;resizable=0;points=[];autosize=1;strokeColor=none;fillColor=none;fontFamily=Verdana;" vertex="1" parent="1">
          <mxGeometry x="26" y="140" width="49" height="26" as="geometry" />
        </mxCell>
        <mxCell id="dCB3EUK5uvfwZvrrkoyE-2" value="SOAP" style="text;html=1;align=center;verticalAlign=middle;resizable=0;points=[];autosize=1;strokeColor=none;fillColor=none;fontFamily=Verdana;" vertex="1" parent="1">
          <mxGeometry x="319" y="140" width="52" height="26" as="geometry" />
        </mxCell>
        <mxCell id="dCB3EUK5uvfwZvrrkoyE-3" value="RPC" style="text;html=1;align=center;verticalAlign=middle;resizable=0;points=[];autosize=1;strokeColor=none;fillColor=none;fontFamily=Verdana;" vertex="1" parent="1">
          <mxGeometry x="166" y="140" width="43" height="26" as="geometry" />
        </mxCell>
        <mxCell id="dCB3EUK5uvfwZvrrkoyE-4" value="GraphQL" style="text;html=1;align=center;verticalAlign=middle;resizable=0;points=[];autosize=1;strokeColor=none;fillColor=none;fontFamily=Verdana;" vertex="1" parent="1">
          <mxGeometry x="532" y="140" width="73" height="26" as="geometry" />
        </mxCell>
        <mxCell id="dCB3EUK5uvfwZvrrkoyE-10" style="edgeStyle=orthogonalEdgeStyle;rounded=0;orthogonalLoop=1;jettySize=auto;html=1;fontFamily=Verdana;" edge="1" parent="1" source="dCB3EUK5uvfwZvrrkoyE-7" target="dCB3EUK5uvfwZvrrkoyE-1">
          <mxGeometry relative="1" as="geometry" />
        </mxCell>
        <mxCell id="dCB3EUK5uvfwZvrrkoyE-11" style="edgeStyle=orthogonalEdgeStyle;rounded=0;orthogonalLoop=1;jettySize=auto;html=1;fontFamily=Verdana;" edge="1" parent="1" source="dCB3EUK5uvfwZvrrkoyE-7" target="dCB3EUK5uvfwZvrrkoyE-3">
          <mxGeometry relative="1" as="geometry" />
        </mxCell>
        <mxCell id="dCB3EUK5uvfwZvrrkoyE-7" value="Architectural styles" style="text;html=1;align=center;verticalAlign=middle;resizable=0;points=[];autosize=1;strokeColor=none;fillColor=none;fontFamily=Verdana;" vertex="1" parent="1">
          <mxGeometry x="53" y="18" width="137" height="26" as="geometry" />
        </mxCell>
        <mxCell id="dCB3EUK5uvfwZvrrkoyE-13" style="edgeStyle=orthogonalEdgeStyle;rounded=0;orthogonalLoop=1;jettySize=auto;html=1;fontFamily=Verdana;" edge="1" parent="1" source="dCB3EUK5uvfwZvrrkoyE-12" target="dCB3EUK5uvfwZvrrkoyE-2">
          <mxGeometry relative="1" as="geometry" />
        </mxCell>
        <mxCell id="dCB3EUK5uvfwZvrrkoyE-12" value="&lt;div&gt;Protocols&lt;/div&gt;" style="text;html=1;align=center;verticalAlign=middle;resizable=0;points=[];autosize=1;strokeColor=none;fillColor=none;fontFamily=Verdana;" vertex="1" parent="1">
          <mxGeometry x="307" y="18" width="76" height="26" as="geometry" />
        </mxCell>
        <mxCell id="dCB3EUK5uvfwZvrrkoyE-15" style="edgeStyle=orthogonalEdgeStyle;rounded=0;orthogonalLoop=1;jettySize=auto;html=1;fontFamily=Verdana;" edge="1" parent="1" source="dCB3EUK5uvfwZvrrkoyE-14" target="dCB3EUK5uvfwZvrrkoyE-4">
          <mxGeometry relative="1" as="geometry" />
        </mxCell>
        <mxCell id="dCB3EUK5uvfwZvrrkoyE-14" value="Data query language and runtime " style="text;html=1;align=center;verticalAlign=middle;resizable=0;points=[];autosize=1;strokeColor=none;fillColor=none;fontFamily=Verdana;" vertex="1" parent="1">
          <mxGeometry x="452.5" y="18" width="231" height="26" as="geometry" />
        </mxCell>
      </root>
    </mxGraphModel>
  </diagram>
</mxfile>
